<svg width="740" height="71" viewBox="0 0 740 71" fill="none" xmlns="http://www.w3.org/2000/svg">
<mask id="path-1-outside-1_38_51" maskUnits="userSpaceOnUse" x="-2" y="-1" width="743" height="73" fill="black">
<rect fill="white" x="-2" y="-1" width="743" height="73"/>
<path d="M53.224 54.6H22.024L16.072 69H0.136L30.088 1.8H45.448L75.496 69H59.176L53.224 54.6ZM48.328 42.792L37.672 17.064L27.016 42.792H48.328ZM87.268 1.8H117.796C125.092 1.8 131.524 3.208 137.092 6.024C142.724 8.776 147.076 12.68 150.148 17.736C153.284 22.792 154.852 28.68 154.852 35.4C154.852 42.12 153.284 48.008 150.148 53.064C147.076 58.12 142.724 62.056 137.092 64.872C131.524 67.624 125.092 69 117.796 69H87.268V1.8ZM117.028 56.232C123.748 56.232 129.092 54.376 133.06 50.664C137.092 46.888 139.108 41.8 139.108 35.4C139.108 29 137.092 23.944 133.06 20.232C129.092 16.456 123.748 14.568 117.028 14.568H102.82V56.232H117.028ZM233.739 1.8L204.651 69H189.291L160.299 1.8H177.099L197.547 49.8L218.283 1.8H233.739ZM286.155 54.6H254.955L249.003 69H233.067L263.019 1.8H278.379L308.427 69H292.107L286.155 54.6ZM281.259 42.792L270.603 17.064L259.947 42.792H281.259ZM381.831 1.8V69H369.063L335.559 28.2V69H320.199V1.8H333.063L366.471 42.6V1.8H381.831ZM416.451 14.472H394.947V1.8H453.507V14.472H432.003V69H416.451V14.472ZM507.555 54.6H476.355L470.403 69H454.467L484.419 1.8H499.779L529.827 69H513.507L507.555 54.6ZM502.659 42.792L492.003 17.064L481.347 42.792H502.659ZM586.07 34.344H600.278V61.608C596.63 64.36 592.406 66.472 587.606 67.944C582.806 69.416 577.974 70.152 573.11 70.152C566.134 70.152 559.862 68.68 554.294 65.736C548.726 62.728 544.342 58.6 541.142 53.352C538.006 48.04 536.438 42.056 536.438 35.4C536.438 28.744 538.006 22.792 541.142 17.544C544.342 12.232 548.758 8.104 554.39 5.16C560.022 2.152 566.358 0.647999 573.398 0.647999C579.286 0.647999 584.63 1.64 589.43 3.62399C594.23 5.608 598.262 8.488 601.526 12.264L591.542 21.48C586.742 16.424 580.95 13.896 574.166 13.896C569.878 13.896 566.07 14.792 562.742 16.584C559.414 18.376 556.822 20.904 554.966 24.168C553.11 27.432 552.182 31.176 552.182 35.4C552.182 39.56 553.11 43.272 554.966 46.536C556.822 49.8 559.382 52.36 562.646 54.216C565.974 56.008 569.75 56.904 573.974 56.904C578.454 56.904 582.486 55.944 586.07 54.024V34.344ZM671.556 56.52V69H619.524V1.8H670.308V14.28H634.98V28.872H666.18V40.968H634.98V56.52H671.556ZM710.811 70.152C705.499 70.152 700.347 69.448 695.355 68.04C690.427 66.568 686.459 64.68 683.451 62.376L688.731 50.664C691.611 52.776 695.035 54.472 699.003 55.752C702.971 57.032 706.939 57.672 710.907 57.672C715.323 57.672 718.587 57.032 720.699 55.752C722.811 54.408 723.867 52.648 723.867 50.472C723.867 48.872 723.227 47.56 721.947 46.536C720.731 45.448 719.131 44.584 717.147 43.944C715.227 43.304 712.603 42.6 709.275 41.832C704.155 40.616 699.963 39.4 696.699 38.184C693.435 36.968 690.619 35.016 688.251 32.328C685.947 29.64 684.795 26.056 684.795 21.576C684.795 17.672 685.851 14.152 687.963 11.016C690.075 7.816 693.243 5.288 697.467 3.432C701.755 1.576 706.971 0.647999 713.115 0.647999C717.403 0.647999 721.595 1.16 725.691 2.184C729.787 3.208 733.371 4.68 736.443 6.6L731.643 18.408C725.435 14.888 719.227 13.128 713.019 13.128C708.667 13.128 705.435 13.832 703.323 15.24C701.275 16.648 700.251 18.504 700.251 20.808C700.251 23.112 701.435 24.84 703.803 25.992C706.235 27.08 709.915 28.168 714.843 29.256C719.963 30.472 724.155 31.688 727.419 32.904C730.683 34.12 733.467 36.04 735.771 38.664C738.139 41.288 739.323 44.84 739.323 49.32C739.323 53.16 738.235 56.68 736.059 59.88C733.947 63.016 730.747 65.512 726.459 67.368C722.171 69.224 716.955 70.152 710.811 70.152Z"/>
</mask>
<path d="M53.224 54.6L54.1482 54.218L53.8927 53.6H53.224V54.6ZM22.024 54.6V53.6H21.3553L21.0998 54.218L22.024 54.6ZM16.072 69V70H16.7407L16.9962 69.382L16.072 69ZM0.136 69L-0.777381 68.5929L-1.40455 70H0.136V69ZM30.088 1.8V0.799995H29.4389L29.1746 1.39289L30.088 1.8ZM45.448 1.8L46.3609 1.3918L46.0963 0.799995H45.448V1.8ZM75.496 69V70H77.0386L76.4089 68.5918L75.496 69ZM59.176 69L58.2518 69.382L58.5073 70H59.176V69ZM48.328 42.792V43.792H49.8246L49.2519 42.4093L48.328 42.792ZM37.672 17.064L38.5959 16.6813L37.672 14.4507L36.7481 16.6813L37.672 17.064ZM27.016 42.792L26.0921 42.4093L25.5194 43.792H27.016V42.792ZM53.224 53.6H22.024V55.6H53.224V53.6ZM21.0998 54.218L15.1478 68.618L16.9962 69.382L22.9482 54.982L21.0998 54.218ZM16.072 68H0.136V70H16.072V68ZM1.04938 69.4071L31.0014 2.2071L29.1746 1.39289L-0.777381 68.5929L1.04938 69.4071ZM30.088 2.8H45.448V0.799995H30.088V2.8ZM44.5351 2.20819L74.5831 69.4082L76.4089 68.5918L46.3609 1.3918L44.5351 2.20819ZM75.496 68H59.176V70H75.496V68ZM60.1002 68.618L54.1482 54.218L52.2998 54.982L58.2518 69.382L60.1002 68.618ZM49.2519 42.4093L38.5959 16.6813L36.7481 17.4467L47.4041 43.1747L49.2519 42.4093ZM36.7481 16.6813L26.0921 42.4093L27.9399 43.1747L38.5959 17.4467L36.7481 16.6813ZM27.016 43.792H48.328V41.792H27.016V43.792ZM87.268 1.8V0.799995H86.268V1.8H87.268ZM137.092 6.024L136.641 6.91645L136.653 6.92247L137.092 6.024ZM150.148 17.736L149.293 18.2553L149.298 18.2631L150.148 17.736ZM150.148 53.064L149.298 52.5369L149.293 52.5447L150.148 53.064ZM137.092 64.872L137.535 65.7685L137.539 65.7664L137.092 64.872ZM87.268 69H86.268V70H87.268V69ZM133.06 50.664L133.743 51.3943L133.744 51.3939L133.06 50.664ZM133.06 20.232L132.371 20.9564L132.377 20.9621L132.383 20.9677L133.06 20.232ZM102.82 14.568V13.568H101.82V14.568H102.82ZM102.82 56.232H101.82V57.232H102.82V56.232ZM87.268 2.8H117.796V0.799995H87.268V2.8ZM117.796 2.8C124.962 2.8 131.234 4.18219 136.641 6.91636L137.543 5.13163C131.814 2.2338 125.222 0.799995 117.796 0.799995V2.8ZM136.653 6.92247C142.124 9.59569 146.327 13.3727 149.293 18.2553L151.003 17.2167C147.825 11.9872 143.324 7.95631 137.531 5.12552L136.653 6.92247ZM149.298 18.2631C152.324 23.141 153.852 28.8415 153.852 35.4H155.852C155.852 28.5185 154.244 22.443 150.998 17.2089L149.298 18.2631ZM153.852 35.4C153.852 41.9585 152.324 47.659 149.298 52.5369L150.998 53.5911C154.244 48.357 155.852 42.2815 155.852 35.4H153.852ZM149.293 52.5447C146.326 57.4293 142.12 61.2401 136.645 63.9776L137.539 65.7664C143.328 62.8719 147.826 58.8107 151.003 53.5833L149.293 52.5447ZM136.649 63.9755C131.241 66.6485 124.965 68 117.796 68V70C125.219 70 131.807 68.5995 137.535 65.7685L136.649 63.9755ZM117.796 68H87.268V70H117.796V68ZM88.268 69V1.8H86.268V69H88.268ZM117.028 57.232C123.939 57.232 129.549 55.3183 133.743 51.3943L132.377 49.9337C128.636 53.4337 123.557 55.232 117.028 55.232V57.232ZM133.744 51.3939C138.01 47.3984 140.108 42.0286 140.108 35.4H138.108C138.108 41.5714 136.174 46.3776 132.376 49.9341L133.744 51.3939ZM140.108 35.4C140.108 28.7717 138.01 23.4298 133.737 19.4963L132.383 20.9677C136.174 24.4582 138.108 29.2282 138.108 35.4H140.108ZM133.749 19.5076C129.555 15.5164 123.943 13.568 117.028 13.568V15.568C123.553 15.568 128.629 17.3956 132.371 20.9564L133.749 19.5076ZM117.028 13.568H102.82V15.568H117.028V13.568ZM101.82 14.568V56.232H103.82V14.568H101.82ZM102.82 57.232H117.028V55.232H102.82V57.232ZM233.739 1.8L234.656 2.19724L235.261 0.799995H233.739V1.8ZM204.651 69V70H205.307L205.568 69.3972L204.651 69ZM189.291 69L188.372 69.3961L188.633 70H189.291V69ZM160.299 1.8V0.799995H158.778L159.38 2.19613L160.299 1.8ZM177.099 1.8L178.019 1.40808L177.759 0.799995H177.099V1.8ZM197.547 49.8L196.627 50.1919L197.54 52.3365L198.465 50.1966L197.547 49.8ZM218.283 1.8V0.799995H217.625L217.365 1.40342L218.283 1.8ZM232.821 1.40276L203.733 68.6028L205.568 69.3972L234.656 2.19724L232.821 1.40276ZM204.651 68H189.291V70H204.651V68ZM190.209 68.6039L161.217 1.40386L159.38 2.19613L188.372 69.3961L190.209 68.6039ZM160.299 2.8H177.099V0.799995H160.299V2.8ZM176.179 2.19192L196.627 50.1919L198.467 49.4081L178.019 1.40808L176.179 2.19192ZM198.465 50.1966L219.201 2.19657L217.365 1.40342L196.629 49.4034L198.465 50.1966ZM218.283 2.8H233.739V0.799995H218.283V2.8ZM286.155 54.6L287.079 54.218L286.824 53.6H286.155V54.6ZM254.955 54.6V53.6H254.287L254.031 54.218L254.955 54.6ZM249.003 69V70H249.672L249.927 69.382L249.003 69ZM233.067 69L232.154 68.5929L231.527 70H233.067V69ZM263.019 1.8V0.799995H262.37L262.106 1.39289L263.019 1.8ZM278.379 1.8L279.292 1.3918L279.028 0.799995H278.379V1.8ZM308.427 69V70H309.97L309.34 68.5918L308.427 69ZM292.107 69L291.183 69.382L291.439 70H292.107V69ZM281.259 42.792V43.792H282.756L282.183 42.4093L281.259 42.792ZM270.603 17.064L271.527 16.6813L270.603 14.4507L269.679 16.6813L270.603 17.064ZM259.947 42.792L259.023 42.4093L258.451 43.792H259.947V42.792ZM286.155 53.6H254.955V55.6H286.155V53.6ZM254.031 54.218L248.079 68.618L249.927 69.382L255.879 54.982L254.031 54.218ZM249.003 68H233.067V70H249.003V68ZM233.981 69.4071L263.933 2.2071L262.106 1.39289L232.154 68.5929L233.981 69.4071ZM263.019 2.8H278.379V0.799995H263.019V2.8ZM277.466 2.20819L307.514 69.4082L309.34 68.5918L279.292 1.3918L277.466 2.20819ZM308.427 68H292.107V70H308.427V68ZM293.031 68.618L287.079 54.218L285.231 54.982L291.183 69.382L293.031 68.618ZM282.183 42.4093L271.527 16.6813L269.679 17.4467L280.335 43.1747L282.183 42.4093ZM269.679 16.6813L259.023 42.4093L260.871 43.1747L271.527 17.4467L269.679 16.6813ZM259.947 43.792H281.259V41.792H259.947V43.792ZM381.831 1.8H382.831V0.799995H381.831V1.8ZM381.831 69V70H382.831V69H381.831ZM369.063 69L368.29 69.6346L368.59 70H369.063V69ZM335.559 28.2L336.332 27.5654L334.559 25.4065V28.2H335.559ZM335.559 69V70H336.559V69H335.559ZM320.199 69H319.199V70H320.199V69ZM320.199 1.8V0.799995H319.199V1.8H320.199ZM333.063 1.8L333.837 1.16646L333.537 0.799995H333.063V1.8ZM366.471 42.6L365.698 43.2335L367.471 45.3997V42.6H366.471ZM366.471 1.8V0.799995H365.471V1.8H366.471ZM380.831 1.8V69H382.831V1.8H380.831ZM381.831 68H369.063V70H381.831V68ZM369.836 68.3654L336.332 27.5654L334.786 28.8346L368.29 69.6346L369.836 68.3654ZM334.559 28.2V69H336.559V28.2H334.559ZM335.559 68H320.199V70H335.559V68ZM321.199 69V1.8H319.199V69H321.199ZM320.199 2.8H333.063V0.799995H320.199V2.8ZM332.29 2.43353L365.698 43.2335L367.245 41.9665L333.837 1.16646L332.29 2.43353ZM367.471 42.6V1.8H365.471V42.6H367.471ZM366.471 2.8H381.831V0.799995H366.471V2.8ZM416.451 14.472H417.451V13.472H416.451V14.472ZM394.947 14.472H393.947V15.472H394.947V14.472ZM394.947 1.8V0.799995H393.947V1.8H394.947ZM453.507 1.8H454.507V0.799995H453.507V1.8ZM453.507 14.472V15.472H454.507V14.472H453.507ZM432.003 14.472V13.472H431.003V14.472H432.003ZM432.003 69V70H433.003V69H432.003ZM416.451 69H415.451V70H416.451V69ZM416.451 13.472H394.947V15.472H416.451V13.472ZM395.947 14.472V1.8H393.947V14.472H395.947ZM394.947 2.8H453.507V0.799995H394.947V2.8ZM452.507 1.8V14.472H454.507V1.8H452.507ZM453.507 13.472H432.003V15.472H453.507V13.472ZM431.003 14.472V69H433.003V14.472H431.003ZM432.003 68H416.451V70H432.003V68ZM417.451 69V14.472H415.451V69H417.451ZM507.555 54.6L508.479 54.218L508.224 53.6H507.555V54.6ZM476.355 54.6V53.6H475.687L475.431 54.218L476.355 54.6ZM470.403 69V70H471.072L471.327 69.382L470.403 69ZM454.467 69L453.554 68.5929L452.927 70H454.467V69ZM484.419 1.8V0.799995H483.77L483.506 1.39289L484.419 1.8ZM499.779 1.8L500.692 1.3918L500.428 0.799995H499.779V1.8ZM529.827 69V70H531.37L530.74 68.5918L529.827 69ZM513.507 69L512.583 69.382L512.839 70H513.507V69ZM502.659 42.792V43.792H504.156L503.583 42.4093L502.659 42.792ZM492.003 17.064L492.927 16.6813L492.003 14.4507L491.079 16.6813L492.003 17.064ZM481.347 42.792L480.423 42.4093L479.851 43.792H481.347V42.792ZM507.555 53.6H476.355V55.6H507.555V53.6ZM475.431 54.218L469.479 68.618L471.327 69.382L477.279 54.982L475.431 54.218ZM470.403 68H454.467V70H470.403V68ZM455.381 69.4071L485.333 2.2071L483.506 1.39289L453.554 68.5929L455.381 69.4071ZM484.419 2.8H499.779V0.799995H484.419V2.8ZM498.866 2.20819L528.914 69.4082L530.74 68.5918L500.692 1.3918L498.866 2.20819ZM529.827 68H513.507V70H529.827V68ZM514.431 68.618L508.479 54.218L506.631 54.982L512.583 69.382L514.431 68.618ZM503.583 42.4093L492.927 16.6813L491.079 17.4467L501.735 43.1747L503.583 42.4093ZM491.079 16.6813L480.423 42.4093L482.271 43.1747L492.927 17.4467L491.079 16.6813ZM481.347 43.792H502.659V41.792H481.347V43.792ZM586.07 34.344V33.344H585.07V34.344H586.07ZM600.278 34.344H601.278V33.344H600.278V34.344ZM600.278 61.608L600.88 62.4063L601.278 62.1062V61.608H600.278ZM587.606 67.944L587.899 68.9001L587.606 67.944ZM554.294 65.736L553.818 66.6159L553.826 66.62L554.294 65.736ZM541.142 53.352L540.281 53.8604L540.284 53.8665L540.288 53.8726L541.142 53.352ZM541.142 17.544L540.285 17.028L540.283 17.031L541.142 17.544ZM554.39 5.16L554.853 6.04626L554.861 6.04207L554.39 5.16ZM589.43 3.62399L589.812 2.69983L589.43 3.62399ZM601.526 12.264L602.204 12.9988L602.915 12.3423L602.282 11.61L601.526 12.264ZM591.542 21.48L590.817 22.1685L591.495 22.8836L592.22 22.2148L591.542 21.48ZM562.742 16.584L563.216 17.4645L562.742 16.584ZM554.966 46.536L554.096 47.0303L554.966 46.536ZM562.646 54.216L562.151 55.0853L562.161 55.091L562.172 55.0965L562.646 54.216ZM586.07 54.024L586.542 54.9055L587.07 54.6227V54.024H586.07ZM586.07 35.344H600.278V33.344H586.07V35.344ZM599.278 34.344V61.608H601.278V34.344H599.278ZM599.675 60.8097C596.129 63.4849 592.012 65.5467 587.313 66.9879L587.899 68.9001C592.799 67.3972 597.13 65.2351 600.88 62.4063L599.675 60.8097ZM587.313 66.9879C582.604 68.4318 577.871 69.152 573.11 69.152V71.152C578.076 71.152 583.007 70.4002 587.899 68.9001L587.313 66.9879ZM573.11 69.152C566.279 69.152 560.17 67.7119 554.761 64.852L553.826 66.62C559.553 69.6481 565.989 71.152 573.11 71.152V69.152ZM554.769 64.8562C549.352 61.9297 545.101 57.9237 541.996 52.8314L540.288 53.8726C543.583 59.2763 548.099 63.5263 553.818 66.6158L554.769 64.8562ZM542.003 52.8436C538.965 47.6977 537.438 41.8918 537.438 35.4H535.438C535.438 42.2202 537.047 48.3823 540.281 53.8604L542.003 52.8436ZM537.438 35.4C537.438 28.9081 538.965 23.1363 542 18.057L540.283 17.031C537.047 22.4477 535.438 28.5799 535.438 35.4H537.438ZM541.998 18.06C545.101 12.9092 549.379 8.90745 554.853 6.04622L553.926 4.27377C548.136 7.30055 543.582 11.5548 540.285 17.028L541.998 18.06ZM554.861 6.04207C560.333 3.11921 566.505 1.648 573.398 1.648V-0.352001C566.211 -0.352001 559.71 1.18479 553.919 4.27792L554.861 6.04207ZM573.398 1.648C579.172 1.648 584.384 2.62049 589.048 4.54816L589.812 2.69983C584.875 0.65951 579.399 -0.352001 573.398 -0.352001V1.648ZM589.048 4.54816C593.71 6.47505 597.611 9.26486 600.769 12.9179L602.282 11.61C598.912 7.71113 594.75 4.74094 589.812 2.69983L589.048 4.54816ZM600.847 11.5292L590.863 20.7452L592.22 22.2148L602.204 12.9988L600.847 11.5292ZM592.267 20.7915C587.284 15.5428 581.232 12.896 574.166 12.896V14.896C580.667 14.896 586.199 17.3052 590.817 22.1685L592.267 20.7915ZM574.166 12.896C569.735 12.896 565.76 13.823 562.268 15.7035L563.216 17.4645C566.38 15.761 570.021 14.896 574.166 14.896V12.896ZM562.268 15.7035C558.775 17.584 556.046 20.2453 554.096 23.6737L555.835 24.6623C557.598 21.5627 560.052 19.168 563.216 17.4645L562.268 15.7035ZM554.096 23.6737C552.144 27.1064 551.182 31.0248 551.182 35.4H553.182C553.182 31.3272 554.075 27.7576 555.835 24.6623L554.096 23.6737ZM551.182 35.4C551.182 39.7142 552.146 43.5998 554.096 47.0303L555.835 46.0417C554.074 42.9442 553.182 39.4058 553.182 35.4H551.182ZM554.096 47.0303C556.041 50.4508 558.731 53.1403 562.151 55.0853L563.14 53.3467C560.032 51.5797 557.602 49.1492 555.835 46.0417L554.096 47.0303ZM562.172 55.0965C565.662 56.9758 569.604 57.904 573.974 57.904V55.904C569.895 55.904 566.286 55.0402 563.12 53.3355L562.172 55.0965ZM573.974 57.904C578.601 57.904 582.798 56.911 586.542 54.9055L585.598 53.1425C582.173 54.977 578.306 55.904 573.974 55.904V57.904ZM587.07 54.024V34.344H585.07V54.024H587.07ZM671.556 56.52H672.556V55.52H671.556V56.52ZM671.556 69V70H672.556V69H671.556ZM619.524 69H618.524V70H619.524V69ZM619.524 1.8V0.799995H618.524V1.8H619.524ZM670.308 1.8H671.308V0.799995H670.308V1.8ZM670.308 14.28V15.28H671.308V14.28H670.308ZM634.98 14.28V13.28H633.98V14.28H634.98ZM634.98 28.872H633.98V29.872H634.98V28.872ZM666.18 28.872H667.18V27.872H666.18V28.872ZM666.18 40.968V41.968H667.18V40.968H666.18ZM634.98 40.968V39.968H633.98V40.968H634.98ZM634.98 56.52H633.98V57.52H634.98V56.52ZM670.556 56.52V69H672.556V56.52H670.556ZM671.556 68H619.524V70H671.556V68ZM620.524 69V1.8H618.524V69H620.524ZM619.524 2.8H670.308V0.799995H619.524V2.8ZM669.308 1.8V14.28H671.308V1.8H669.308ZM670.308 13.28H634.98V15.28H670.308V13.28ZM633.98 14.28V28.872H635.98V14.28H633.98ZM634.98 29.872H666.18V27.872H634.98V29.872ZM665.18 28.872V40.968H667.18V28.872H665.18ZM666.18 39.968H634.98V41.968H666.18V39.968ZM633.98 40.968V56.52H635.98V40.968H633.98ZM634.98 57.52H671.556V55.52H634.98V57.52ZM695.354 68.04L695.068 68.9982L695.076 69.0004L695.083 69.0024L695.354 68.04ZM683.451 62.376L682.539 61.965L682.213 62.6878L682.842 63.1699L683.451 62.376ZM688.731 50.664L689.322 49.8576L688.326 49.1275L687.819 50.253L688.731 50.664ZM699.003 55.752L699.31 54.8003L699.003 55.752ZM720.698 55.752L721.217 56.6072L721.226 56.6015L721.235 56.5957L720.698 55.752ZM721.947 46.536L721.28 47.2812L721.3 47.2996L721.322 47.3169L721.947 46.536ZM717.146 43.944L716.83 44.8927L716.84 44.8957L717.146 43.944ZM709.275 41.832L709.043 42.805L709.05 42.8064L709.275 41.832ZM696.698 38.184L697.048 37.2469L696.698 38.184ZM688.25 32.328L687.491 32.9788L687.5 32.989L688.25 32.328ZM687.963 11.016L688.792 11.5746L688.797 11.5668L687.963 11.016ZM697.466 3.432L697.069 2.51426L697.064 2.51648L697.466 3.432ZM725.69 2.184L725.933 1.21385L725.69 2.184ZM736.443 6.6L737.369 6.97658L737.686 6.19764L736.973 5.752L736.443 6.6ZM731.643 18.408L731.149 19.2779L732.14 19.8396L732.569 18.7846L731.643 18.408ZM703.323 15.24L702.768 14.408L702.762 14.4119L702.756 14.416L703.323 15.24ZM703.802 25.992L703.365 26.8912L703.38 26.8983L703.394 26.9048L703.802 25.992ZM714.843 29.256L715.074 28.2831L715.066 28.2812L715.058 28.2795L714.843 29.256ZM727.419 32.904L727.768 31.9669L727.419 32.904ZM735.771 38.664L735.019 39.3239L735.028 39.334L735.771 38.664ZM736.059 59.88L735.232 59.3177L735.229 59.3214L736.059 59.88ZM726.458 67.368L726.061 66.4503L726.458 67.368ZM710.81 69.152C705.588 69.152 700.528 68.46 695.626 67.0776L695.083 69.0024C700.166 70.436 705.409 71.152 710.81 71.152V69.152ZM695.641 67.0818C690.79 65.633 686.943 63.7911 684.059 61.5821L682.842 63.1699C685.975 65.5689 690.063 67.503 695.068 68.9982L695.641 67.0818ZM684.362 62.787L689.642 51.075L687.819 50.253L682.539 61.965L684.362 62.787ZM688.139 51.4704C691.119 53.6553 694.642 55.3962 698.695 56.7037L699.31 54.8003C695.427 53.5478 692.102 51.8966 689.322 49.8576L688.139 51.4704ZM698.695 56.7037C702.758 58.0141 706.829 58.672 710.906 58.672V56.672C707.048 56.672 703.183 56.0499 699.31 54.8003L698.695 56.7037ZM710.906 58.672C715.381 58.672 718.868 58.0304 721.217 56.6072L720.18 54.8968C718.305 56.0336 715.264 56.672 710.906 56.672V58.672ZM721.235 56.5957C723.585 55.1005 724.867 53.0462 724.867 50.472H722.867C722.867 52.2498 722.036 53.7155 720.162 54.9083L721.235 56.5957ZM724.867 50.472C724.867 48.5597 724.082 46.9635 722.571 45.7551L721.322 47.3169C722.371 48.1565 722.867 49.1843 722.867 50.472H724.867ZM722.613 45.7908C721.268 44.5875 719.535 43.6637 717.453 42.9923L716.84 44.8957C718.726 45.5043 720.193 46.3085 721.28 47.2812L722.613 45.7908ZM717.463 42.9953C715.499 42.3408 712.84 41.6286 709.499 40.8576L709.05 42.8064C712.365 43.5714 714.954 44.2672 716.83 44.8927L717.463 42.9953ZM709.506 40.8591C704.408 39.6483 700.259 38.4433 697.048 37.2469L696.349 39.1211C699.666 40.3567 703.901 41.5837 709.043 42.8049L709.506 40.8591ZM697.048 37.2469C693.943 36.0901 691.263 34.2349 689.001 31.667L687.5 32.989C689.974 35.7971 692.926 37.8459 696.349 39.1211L697.048 37.2469ZM689.01 31.6772C686.899 29.2145 685.794 25.8825 685.794 21.576H683.794C683.794 26.2295 684.994 30.0655 687.491 32.9788L689.01 31.6772ZM685.794 21.576C685.794 17.8641 686.795 14.5399 688.792 11.5746L687.133 10.4574C684.906 13.7641 683.794 17.4799 683.794 21.576H685.794ZM688.797 11.5668C690.783 8.55757 693.785 6.14201 697.869 4.34752L697.064 2.51648C692.7 4.43399 689.366 7.07442 687.128 10.4652L688.797 11.5668ZM697.864 4.34972C701.994 2.5622 707.066 1.648 713.115 1.648V-0.352001C706.875 -0.352001 701.516 0.5898 697.069 2.51427L697.864 4.34972ZM713.115 1.648C717.322 1.648 721.433 2.15028 725.448 3.15414L725.933 1.21385C721.756 0.169716 717.483 -0.352001 713.115 -0.352001V1.648ZM725.448 3.15414C729.459 4.15684 732.943 5.59183 735.913 7.448L736.973 5.752C733.798 3.76817 730.114 2.25916 725.933 1.21385L725.448 3.15414ZM735.516 6.22342L730.716 18.0314L732.569 18.7846L737.369 6.97658L735.516 6.22342ZM732.136 17.5381C725.8 13.9457 719.424 12.128 713.018 12.128V14.128C719.029 14.128 725.069 15.8303 731.149 19.2779L732.136 17.5381ZM713.018 12.128C708.594 12.128 705.124 12.8371 702.768 14.408L703.877 16.072C705.745 14.8269 708.739 14.128 713.018 14.128V12.128ZM702.756 14.416C700.462 15.9932 699.25 18.1453 699.25 20.808H701.25C701.25 18.8627 702.087 17.3028 703.889 16.064L702.756 14.416ZM699.25 20.808C699.25 22.1407 699.596 23.3502 700.314 24.3972C701.026 25.4366 702.065 26.2586 703.365 26.8912L704.24 25.0928C703.172 24.5734 702.435 23.9554 701.963 23.2668C701.497 22.5858 701.25 21.7793 701.25 20.808H699.25ZM703.394 26.9048C705.921 28.0351 709.68 29.1404 714.627 30.2325L715.058 28.2795C710.149 27.1956 706.548 26.1249 704.211 25.0792L703.394 26.9048ZM714.611 30.2289C719.709 31.4397 723.858 32.6447 727.069 33.8411L727.768 31.9669C724.451 30.7313 720.216 29.5043 715.074 28.2831L714.611 30.2289ZM727.069 33.8411C730.178 34.9992 732.824 36.8237 735.019 39.3238L736.522 38.0042C734.109 35.2563 731.187 33.2408 727.768 31.9669L727.069 33.8411ZM735.028 39.334C737.19 41.729 738.323 45.019 738.323 49.32H740.323C740.323 44.661 739.088 40.847 736.513 37.994L735.028 39.334ZM738.323 49.32C738.323 52.9578 737.296 56.2822 735.232 59.3177L736.885 60.4423C739.173 57.0778 740.323 53.3622 740.323 49.32H738.323ZM735.229 59.3214C733.247 62.2652 730.215 64.6523 726.061 66.4503L726.856 68.2857C731.278 66.3717 734.646 63.7668 736.888 60.4386L735.229 59.3214ZM726.061 66.4503C721.932 68.2378 716.859 69.152 710.81 69.152V71.152C717.05 71.152 722.41 70.2102 726.856 68.2857L726.061 66.4503Z" fill="url(#paint0_linear_38_51)" mask="url(#path-1-outside-1_38_51)"/>
<defs>
<linearGradient id="paint0_linear_38_51" x1="811.643" y1="-47.9319" x2="-38.6443" y2="749.668" gradientUnits="userSpaceOnUse">
<stop stop-color="#2575FC"/>
<stop offset="1" stop-color="#6A11CB" stop-opacity="0"/>
</linearGradient>
</defs>
</svg>
